<svg width="18" height="22" viewBox="0 0 18 22" fill="none" xmlns="http://www.w3.org/2000/svg">
<path d="M9.5 5.75C9.5 5.33579 9.16421 5 8.75 5C8.33579 5 8 5.33579 8 5.75V8H5.75C5.33579 8 5 8.33579 5 8.75C5 9.16421 5.33579 9.5 5.75 9.5H8V11.75C8 12.1642 8.33579 12.5 8.75 12.5C9.16421 12.5 9.5 12.1642 9.5 11.75V9.5H11.75C12.1642 9.5 12.5 9.16421 12.5 8.75C12.5 8.33579 12.1642 8 11.75 8H9.5V5.75Z" fill="#24292E"/>
<path d="M5.75 15C5.33579 15 5 15.3358 5 15.75C5 16.1642 5.33579 16.5 5.75 16.5H11.75C12.1642 16.5 12.5 16.1642 12.5 15.75C12.5 15.3358 12.1642 15 11.75 15H5.75Z" fill="#24292E"/>
<path fill-rule="evenodd" clip-rule="evenodd" d="M2 0C0.895431 0 0 0.89543 0 2V20C0 21.1046 0.895431 22 2 22H16C17.1046 22 18 21.1046 18 20V6.01777C18 5.48733 17.7893 4.97863 17.4142 4.60355L13.3964 0.585786C13.0214 0.210714 12.5127 0 11.9822 0H2ZM1.5 2C1.5 1.72386 1.72386 1.5 2 1.5H11.9822C12.1148 1.5 12.242 1.55268 12.3358 1.64645L16.3536 5.66421C16.4473 5.75798 16.5 5.88516 16.5 6.01777V20C16.5 20.2761 16.2761 20.5 16 20.5H2C1.72386 20.5 1.5 20.2761 1.5 20V2Z" fill="#24292E"/>
</svg>
